<svg width="19" height="18" viewBox="0 0 19 18" fill="none" xmlns="http://www.w3.org/2000/svg">
<path d="M3.45163 4.30752C4.07587 4.25326 4.86538 4.25326 5.92609 4.25326H7.40757C9.48184 4.25326 10.519 4.25326 11.3112 4.65903C12.0081 5.01596 12.5747 5.58549 12.9298 6.286C13.3335 7.08238 13.3335 8.12489 13.3335 10.2099V12.2194C13.3335 12.4276 13.3335 12.5317 13.3294 12.6197C13.2646 13.9948 12.4615 15.1727 11.3088 15.7627L12.4514 16.5777C13.1972 17.1097 14.1773 16.3414 13.8369 15.4916C13.5958 14.8896 14.0397 14.2348 14.689 14.2348H15.1904C16.9263 14.2348 18.3335 12.8296 18.3335 11.0961V7.57736C18.3335 5.24704 18.3335 4.08188 17.8794 3.19181C17.4799 2.40889 16.8425 1.77235 16.0585 1.37343C15.1672 0.919922 14.0004 0.919922 11.6668 0.919922H10.0002C7.66661 0.919922 6.49983 0.919922 5.60853 1.37343C4.82453 1.77235 4.18711 2.40889 3.78763 3.19181C3.6234 3.5137 3.51856 3.87157 3.45163 4.30752Z" fill="url(#paint0_linear_1832_691)"/>
<path fill-rule="evenodd" clip-rule="evenodd" d="M12.1469 6.88019C12.5002 7.58287 12.5002 8.50274 12.5002 10.3425V12.1156C12.5002 12.2993 12.5002 12.3911 12.4965 12.4688C12.4175 14.1609 11.082 15.5146 9.41267 15.5947C9.33609 15.5983 9.23499 15.5983 9.0328 15.5983L8.98092 15.5984C8.31965 15.6027 7.67551 15.8119 7.13495 16.198L7.10058 16.2228L5.40844 17.448C4.82835 17.868 4.06609 17.2615 4.33084 16.5906C4.51838 16.1153 4.17309 15.5983 3.66812 15.5983H3.27809C1.92798 15.5983 0.833496 14.4889 0.833496 13.1204V10.3425C0.833496 8.50274 0.833496 7.58287 1.18672 6.88019C1.49742 6.26209 1.99319 5.75956 2.60297 5.44462C3.2962 5.08659 4.2037 5.08659 6.01868 5.08659H7.31498C9.12996 5.08659 10.0375 5.08659 10.7307 5.44462C11.3405 5.75956 11.8362 6.26209 12.1469 6.88019ZM4.16683 11.7533C4.62707 11.7533 5.00016 11.3802 5.00016 10.9199C5.00016 10.4597 4.62707 10.0866 4.16683 10.0866C3.70659 10.0866 3.3335 10.4597 3.3335 10.9199C3.3335 11.3802 3.70659 11.7533 4.16683 11.7533ZM7.50016 10.9199C7.50016 11.3802 7.12707 11.7533 6.66683 11.7533C6.20659 11.7533 5.8335 11.3802 5.8335 10.9199C5.8335 10.4597 6.20659 10.0866 6.66683 10.0866C7.12707 10.0866 7.50016 10.4597 7.50016 10.9199ZM9.16683 11.7533C9.62707 11.7533 10.0002 11.3802 10.0002 10.9199C10.0002 10.4597 9.62707 10.0866 9.16683 10.0866C8.70659 10.0866 8.3335 10.4597 8.3335 10.9199C8.3335 11.3802 8.70659 11.7533 9.16683 11.7533Z" fill="url(#paint1_linear_1832_691)"/>
<defs>
<linearGradient id="paint0_linear_1832_691" x1="1.99729" y1="7.69075" x2="16.145" y2="8.93359" gradientUnits="userSpaceOnUse">
<stop stop-color="#68C9FF"/>
<stop offset="0.994746" stop-color="#D1B5FF"/>
</linearGradient>
<linearGradient id="paint1_linear_1832_691" x1="1.99729" y1="7.69075" x2="16.145" y2="8.93359" gradientUnits="userSpaceOnUse">
<stop stop-color="#68C9FF"/>
<stop offset="0.994746" stop-color="#D1B5FF"/>
</linearGradient>
</defs>
</svg>
