<svg width="6" height="8" viewBox="0 0 6 8" fill="none" xmlns="http://www.w3.org/2000/svg">
<path d="M3.47345 4.49999L1.11345 6.85999C0.989285 6.9849 0.91959 7.15387 0.91959 7.32999C0.91959 7.50612 0.989285 7.67508 1.11345 7.79999C1.17543 7.86248 1.24916 7.91208 1.3304 7.94592C1.41164 7.97977 1.49878 7.99719 1.58679 7.99719C1.67479 7.99719 1.76193 7.97977 1.84317 7.94592C1.92441 7.91208 1.99814 7.86248 2.06012 7.79999L4.88679 4.97333C4.94927 4.91135 4.99887 4.83762 5.03271 4.75638C5.06656 4.67514 5.08398 4.588 5.08398 4.49999C5.08398 4.41199 5.06656 4.32485 5.03271 4.24361C4.99887 4.16237 4.94927 4.08864 4.88679 4.02666L2.06012 1.16666C1.99783 1.10487 1.92395 1.05599 1.84272 1.02281C1.7615 0.989637 1.67452 0.972819 1.58679 0.973326C1.49905 0.972819 1.41207 0.989637 1.33085 1.02281C1.24962 1.05599 1.17575 1.10487 1.11345 1.16666C0.989285 1.29157 0.919591 1.46054 0.919591 1.63666C0.919591 1.81278 0.989285 1.98175 1.11345 2.10666L3.47345 4.49999Z" fill="#C8D2DC"/>
</svg>
