<svg width="24" height="23" viewBox="0 0 24 23" fill="none" xmlns="http://www.w3.org/2000/svg">
<path d="M18.4869 22.5C18.3003 22.5008 18.1163 22.4568 17.9502 22.3717L12.0002 19.2567L6.05021 22.3717C5.857 22.4733 5.63917 22.5186 5.42147 22.5026C5.20377 22.4865 4.99494 22.4097 4.81871 22.2809C4.64249 22.1521 4.50594 21.9764 4.42459 21.7738C4.34325 21.5713 4.32036 21.3499 4.35854 21.135L5.52521 14.5667L0.718545 9.90001C0.568579 9.75036 0.462195 9.56269 0.41081 9.35716C0.359426 9.15162 0.36498 8.93597 0.426878 8.73335C0.494498 8.526 0.618884 8.34176 0.78592 8.20153C0.952956 8.0613 1.15595 7.97071 1.37188 7.94001L8.02188 6.97168L10.9502 0.986681C11.0457 0.789431 11.1949 0.62308 11.3806 0.506683C11.5663 0.390287 11.781 0.328552 12.0002 0.328552C12.2194 0.328552 12.4341 0.390287 12.6198 0.506683C12.8055 0.62308 12.9547 0.789431 13.0502 0.986681L16.0135 6.96001L22.6635 7.92835C22.8795 7.95904 23.0825 8.04964 23.2495 8.18987C23.4165 8.33009 23.5409 8.51433 23.6085 8.72168C23.6704 8.9243 23.676 9.13995 23.6246 9.34549C23.5732 9.55103 23.4668 9.73869 23.3169 9.88835L18.5102 14.555L19.6769 21.1233C19.7185 21.3421 19.6967 21.5681 19.614 21.7749C19.5313 21.9816 19.3912 22.1604 19.2102 22.29C18.9989 22.4381 18.7446 22.5119 18.4869 22.5Z" fill="url(#paint0_linear_120_2715)"/>
<defs>
<linearGradient id="paint0_linear_120_2715" x1="1.92438" y1="9.33803" x2="20.7478" y2="10.9914" gradientUnits="userSpaceOnUse">
<stop stop-color="#68C9FF"/>
<stop offset="0.994746" stop-color="#D1B5FF"/>
</linearGradient>
</defs>
</svg>
