<svg width="386" height="54" viewBox="0 0 386 54" fill="none" xmlns="http://www.w3.org/2000/svg">
<path opacity="0.2" d="M58.12 54V55H59.12V54H58.12ZM46.68 54H45.68V55H46.68V54ZM46.68 16.64H47.68L45.7523 16.2666L46.68 16.64ZM31.64 54V55H32.3154L32.5677 54.3734L31.64 54ZM26.68 54L25.7523 54.3734L26.0046 55H26.68V54ZM11.64 16.64L12.5677 16.2666L10.64 16.64H11.64ZM11.64 54V55H12.64V54H11.64ZM0.28 54H-0.72V55H0.28V54ZM0.28 0.639996V-0.360004H-0.72V0.639996H0.28ZM16.2 0.639996L17.1278 0.267017L16.8758 -0.360004H16.2V0.639996ZM29.16 32.88L28.2322 33.253L29.16 35.5611L30.0878 33.253L29.16 32.88ZM42.12 0.639996V-0.360004H41.4442L41.1922 0.267017L42.12 0.639996ZM58.12 0.639996H59.12V-0.360004H58.12V0.639996ZM58.12 53H46.68V55H58.12V53ZM47.68 54V16.64H45.68V54H47.68ZM45.7523 16.2666L30.7123 53.6266L32.5677 54.3734L47.6077 17.0134L45.7523 16.2666ZM31.64 53H26.68V55H31.64V53ZM27.6077 53.6266L12.5677 16.2666L10.7123 17.0134L25.7523 54.3734L27.6077 53.6266ZM10.64 16.64V54H12.64V16.64H10.64ZM11.64 53H0.28V55H11.64V53ZM1.28 54V0.639996H-0.72V54H1.28ZM0.28 1.64H16.2V-0.360004H0.28V1.64ZM15.2722 1.01297L28.2322 33.253L30.0878 32.507L17.1278 0.267017L15.2722 1.01297ZM30.0878 33.253L43.0478 1.01297L41.1922 0.267017L28.2322 32.507L30.0878 33.253ZM42.12 1.64H58.12V-0.360004H42.12V1.64ZM57.12 0.639996V54H59.12V0.639996H57.12ZM118.478 54V55H119.934L119.411 53.6405L118.478 54ZM105.518 54L104.577 54.3411L104.817 55H105.518V54ZM102.238 44.96L103.178 44.6189L102.938 43.96H102.238V44.96ZM79.3575 44.96V43.96H78.6623L78.4202 44.6116L79.3575 44.96ZM75.9975 54V55H76.6927L76.9348 54.3484L75.9975 54ZM63.0375 54L62.1048 53.6392L61.5785 55H63.0375V54ZM83.6775 0.639996V-0.360004H82.9921L82.7448 0.279238L83.6775 0.639996ZM97.9175 0.639996L98.8506 0.280455L98.6039 -0.360004H97.9175V0.639996ZM99.1175 34.96V35.96H100.544L100.058 34.6193L99.1175 34.96ZM90.7975 12L91.7377 11.6593L90.7975 9.06478L89.8573 11.6593L90.7975 12ZM82.4775 34.96L81.5373 34.6193L81.0515 35.96H82.4775V34.96ZM118.478 53H105.518V55H118.478V53ZM106.458 53.6589L103.178 44.6189L101.297 45.3011L104.577 54.3411L106.458 53.6589ZM102.238 43.96H79.3575V45.96H102.238V43.96ZM78.4202 44.6116L75.0602 53.6516L76.9348 54.3484L80.2948 45.3084L78.4202 44.6116ZM75.9975 53H63.0375V55H75.9975V53ZM63.9702 54.3608L84.6102 1.00075L82.7448 0.279238L62.1048 53.6392L63.9702 54.3608ZM83.6775 1.64H97.9175V-0.360004H83.6775V1.64ZM96.9844 0.999537L117.544 54.3595L119.411 53.6405L98.8506 0.280455L96.9844 0.999537ZM100.058 34.6193L91.7377 11.6593L89.8573 12.3407L98.1773 35.3007L100.058 34.6193ZM89.8573 11.6593L81.5373 34.6193L83.4177 35.3007L91.7377 12.3407L89.8573 11.6593ZM82.4775 35.96H99.1175V33.96H82.4775V35.96ZM169.085 54V55H171.165L169.866 53.3756L169.085 54ZM155.085 54L154.288 54.6033L154.588 55H155.085V54ZM138.925 32.64L139.722 32.0367L138.965 31.0358L138.159 31.9974L138.925 32.64ZM134.765 37.6L133.999 36.9574L133.765 37.2362V37.6H134.765ZM134.765 54V55H135.765V54H134.765ZM123.405 54H122.405V55H123.405V54ZM123.405 0.639996V-0.360004H122.405V0.639996H123.405ZM134.765 0.639996H135.765V-0.360004H134.765V0.639996ZM134.765 24.48H133.765V27.3534L135.549 25.1008L134.765 24.48ZM153.645 0.639996V-0.360004H153.161L152.861 0.0191574L153.645 0.639996ZM167.645 0.639996L168.408 1.28616L169.802 -0.360004H167.645V0.639996ZM146.445 25.68L145.682 25.0338L145.15 25.6618L145.664 26.3044L146.445 25.68ZM169.085 53H155.085V55H169.085V53ZM155.882 53.3967L139.722 32.0367L138.128 33.2433L154.288 54.6033L155.882 53.3967ZM138.159 31.9974L133.999 36.9574L135.531 38.2426L139.691 33.2826L138.159 31.9974ZM133.765 37.6V54H135.765V37.6H133.765ZM134.765 53H123.405V55H134.765V53ZM124.405 54V0.639996H122.405V54H124.405ZM123.405 1.64H134.765V-0.360004H123.405V1.64ZM133.765 0.639996V24.48H135.765V0.639996H133.765ZM135.549 25.1008L154.429 1.26083L152.861 0.0191574L133.981 23.8592L135.549 25.1008ZM153.645 1.64H167.645V-0.360004H153.645V1.64ZM166.882 -0.00616455L145.682 25.0338L147.208 26.3262L168.408 1.28616L166.882 -0.00616455ZM145.664 26.3044L168.304 54.6244L169.866 53.3756L147.226 25.0556L145.664 26.3044ZM212.024 54V55H213.024V54H212.024ZM174.264 54H173.264V55H174.264V54ZM174.264 0.639996V-0.360004H173.264V0.639996H174.264ZM212.024 0.639996H213.024V-0.360004H212.024V0.639996ZM212.024 10.64V11.64H213.024V10.64H212.024ZM185.624 10.64V9.64H184.624V10.64H185.624ZM185.624 21.92H184.624V22.92H185.624V21.92ZM211.464 21.92H212.464V20.92H211.464V21.92ZM211.464 31.92V32.92H212.464V31.92H211.464ZM185.624 31.92V30.92H184.624V31.92H185.624ZM185.624 44H184.624V45H185.624V44ZM212.024 44H213.024V43H212.024V44ZM212.024 53H174.264V55H212.024V53ZM175.264 54V0.639996H173.264V54H175.264ZM174.264 1.64H212.024V-0.360004H174.264V1.64ZM211.024 0.639996V10.64H213.024V0.639996H211.024ZM212.024 9.64H185.624V11.64H212.024V9.64ZM184.624 10.64V21.92H186.624V10.64H184.624ZM185.624 22.92H211.464V20.92H185.624V22.92ZM210.464 21.92V31.92H212.464V21.92H210.464ZM211.464 30.92H185.624V32.92H211.464V30.92ZM184.624 31.92V44H186.624V31.92H184.624ZM185.624 45H212.024V43H185.624V45ZM211.024 44V54H213.024V44H211.024ZM291.134 54V55H292.591L292.067 53.6405L291.134 54ZM278.174 54L277.234 54.3411L277.473 55H278.174V54ZM274.894 44.96L275.834 44.6189L275.595 43.96H274.894V44.96ZM252.014 44.96V43.96H251.319L251.076 44.6116L252.014 44.96ZM248.654 54V55H249.349L249.591 54.3484L248.654 54ZM235.694 54L234.761 53.6392L234.235 55H235.694V54ZM256.334 0.639996V-0.360004H255.648L255.401 0.279238L256.334 0.639996ZM270.574 0.639996L271.507 0.280455L271.26 -0.360004H270.574V0.639996ZM271.774 34.96V35.96H273.2L272.714 34.6193L271.774 34.96ZM263.454 12L264.394 11.6593L263.454 9.06478L262.514 11.6593L263.454 12ZM255.134 34.96L254.194 34.6193L253.708 35.96H255.134V34.96ZM291.134 53H278.174V55H291.134V53ZM279.114 53.6589L275.834 44.6189L273.954 45.3011L277.234 54.3411L279.114 53.6589ZM274.894 43.96H252.014V45.96H274.894V43.96ZM251.076 44.6116L247.716 53.6516L249.591 54.3484L252.951 45.3084L251.076 44.6116ZM248.654 53H235.694V55H248.654V53ZM236.626 54.3608L257.266 1.00075L255.401 0.279238L234.761 53.6392L236.626 54.3608ZM256.334 1.64H270.574V-0.360004H256.334V1.64ZM269.641 0.999537L290.201 54.3595L292.067 53.6405L271.507 0.280455L269.641 0.999537ZM272.714 34.6193L264.394 11.6593L262.514 12.3407L270.834 35.3007L272.714 34.6193ZM262.514 11.6593L254.194 34.6193L256.074 35.3007L264.394 12.3407L262.514 11.6593ZM255.134 35.96H271.774V33.96H255.134V35.96ZM339.261 54V55H341.013L340.122 53.4915L339.261 54ZM326.221 54L325.346 54.4838L325.631 55H326.221V54ZM315.741 35.04L316.616 34.5562L316.331 34.04H315.741V35.04ZM307.421 35.04V34.04H306.421V35.04H307.421ZM307.421 54V55H308.421V54H307.421ZM296.061 54H295.061V55H296.061V54ZM296.061 0.639996V-0.360004H295.061V0.639996H296.061ZM334.061 5.43999L333.354 6.14713L333.36 6.15292L334.061 5.43999ZM335.501 28.48L334.737 27.8354L334.729 27.8443L335.501 28.48ZM327.261 33.68L327.038 32.7053L325.705 33.0112L326.4 34.1885L327.261 33.68ZM325.101 23.12L325.752 23.8793L325.76 23.8727L325.767 23.8659L325.101 23.12ZM325.101 12.64L324.435 13.3859L324.443 13.3927L324.45 13.3993L325.101 12.64ZM307.421 10.64V9.64H306.421V10.64H307.421ZM307.421 25.04H306.421V26.04H307.421V25.04ZM339.261 53H326.221V55H339.261V53ZM327.096 53.5162L316.616 34.5562L314.866 35.5238L325.346 54.4838L327.096 53.5162ZM315.741 34.04H307.421V36.04H315.741V34.04ZM306.421 35.04V54H308.421V35.04H306.421ZM307.421 53H296.061V55H307.421V53ZM297.061 54V0.639996H295.061V54H297.061ZM296.061 1.64H321.021V-0.360004H296.061V1.64ZM321.021 1.64C326.31 1.64 330.381 3.17347 333.354 6.1471L334.768 4.73289C331.342 1.30652 326.719 -0.360004 321.021 -0.360004V1.64ZM333.36 6.15292C336.4 9.14331 337.941 13.0089 337.941 17.84H339.941C339.941 12.5377 338.229 8.13668 334.762 4.72707L333.36 6.15292ZM337.941 17.84C337.941 22.0334 336.845 25.3344 334.737 27.8354L336.266 29.1246C338.744 26.1856 339.941 22.3932 339.941 17.84H337.941ZM334.729 27.8443C332.621 30.404 330.063 32.0109 327.038 32.7053L327.485 34.6547C330.966 33.8558 333.901 31.9959 336.273 29.1157L334.729 27.8443ZM326.4 34.1885L338.4 54.5085L340.122 53.4915L328.122 33.1715L326.4 34.1885ZM319.341 26.04C321.878 26.04 324.044 25.3434 325.752 23.8793L324.45 22.3607C323.172 23.4566 321.498 24.04 319.341 24.04V26.04ZM325.767 23.8659C327.494 22.3241 328.341 20.2821 328.341 17.84H326.341C326.341 19.7713 325.695 21.2492 324.435 22.3741L325.767 23.8659ZM328.341 17.84C328.341 15.3981 327.493 13.3734 325.752 11.8807L324.45 13.3993C325.696 14.4666 326.341 15.9086 326.341 17.84H328.341ZM325.767 11.8941C324.06 10.3695 321.889 9.64 319.341 9.64V11.64C321.487 11.64 323.156 12.2438 324.435 13.3859L325.767 11.8941ZM319.341 9.64H307.421V11.64H319.341V9.64ZM306.421 10.64V25.04H308.421V10.64H306.421ZM307.421 26.04H319.341V24.04H307.421V26.04ZM370.446 54V55H371.446V54H370.446ZM359.006 54H358.006V55H359.006V54ZM359.006 10.64H360.006V9.64H359.006V10.64ZM343.406 10.64H342.406V11.64H343.406V10.64ZM343.406 0.639996V-0.360004H342.406V0.639996H343.406ZM385.966 0.639996H386.966V-0.360004H385.966V0.639996ZM385.966 10.64V11.64H386.966V10.64H385.966ZM370.446 10.64V9.64H369.446V10.64H370.446ZM370.446 53H359.006V55H370.446V53ZM360.006 54V10.64H358.006V54H360.006ZM359.006 9.64H343.406V11.64H359.006V9.64ZM344.406 10.64V0.639996H342.406V10.64H344.406ZM343.406 1.64H385.966V-0.360004H343.406V1.64ZM384.966 0.639996V10.64H386.966V0.639996H384.966ZM385.966 9.64H370.446V11.64H385.966V9.64ZM369.446 10.64V54H371.446V10.64H369.446Z" fill="#FCFFFF"/>
</svg>
