<svg width="354" height="56" viewBox="0 0 354 56" fill="none" xmlns="http://www.w3.org/2000/svg">
<path opacity="0.2" d="M48.5088 55V56H49.5088V55H48.5088ZM37.5488 55L36.7415 55.5902L37.0411 56H37.5488V55ZM12.1087 20.2L12.916 19.6098L11.1087 17.1376V20.2H12.1087ZM12.1087 55V56H13.1087V55H12.1087ZM0.748751 55H-0.251249V56H0.748751V55ZM0.748751 1.64V0.639996H-0.251249V1.64H0.748751ZM12.4287 1.64L13.2336 1.04647L12.9338 0.639996H12.4287V1.64ZM37.1488 35.16L36.3439 35.7535L38.1488 38.2008V35.16H37.1488ZM37.1488 1.64V0.639996H36.1488V1.64H37.1488ZM48.5088 1.64H49.5088V0.639996H48.5088V1.64ZM48.5088 54H37.5488V56H48.5088V54ZM38.356 54.4098L12.916 19.6098L11.3015 20.7902L36.7415 55.5902L38.356 54.4098ZM11.1087 20.2V55H13.1087V20.2H11.1087ZM12.1087 54H0.748751V56H12.1087V54ZM1.74875 55V1.64H-0.251249V55H1.74875ZM0.748751 2.64H12.4287V0.639996H0.748751V2.64ZM11.6239 2.23352L36.3439 35.7535L37.9536 34.5665L13.2336 1.04647L11.6239 2.23352ZM38.1488 35.16V1.64H36.1488V35.16H38.1488ZM37.1488 2.64H48.5088V0.639996H37.1488V2.64ZM47.5088 1.64V55H49.5088V1.64H47.5088ZM64.31 48.2L63.6029 48.9071L63.6101 48.9143L64.31 48.2ZM64.31 8.6L65.0135 9.31072L65.0135 9.31068L64.31 8.6ZM104.31 8.52L103.607 9.23073L103.61 9.23428L104.31 8.52ZM104.31 48.2L103.61 47.4857L103.607 47.4893L104.31 48.2ZM72.55 40.92L71.8019 41.5836L71.8079 41.5903L72.55 40.92ZM96.07 40.92L96.8121 41.5903L96.07 40.92ZM96.07 15.8L95.3279 16.4703L96.07 15.8ZM72.55 15.8L71.8079 15.1297L71.8019 15.1364L72.55 15.8ZM84.31 54.96C76.4926 54.96 70.0853 52.4587 65.0099 47.4857L63.6101 48.9143C69.0947 54.288 76.0207 56.96 84.31 56.96V54.96ZM65.0171 47.4929C59.9944 42.4701 57.47 36.1189 57.47 28.36H55.47C55.47 36.6011 58.1723 43.4765 63.6029 48.9071L65.0171 47.4929ZM57.47 28.36C57.47 20.6011 59.9942 14.2788 65.0135 9.31072L63.6065 7.88927C58.1725 13.2679 55.47 20.1189 55.47 28.36H57.47ZM65.0135 9.31068C70.0896 4.28583 76.4958 1.76 84.31 1.76V-0.240002C76.0176 -0.240002 69.0904 2.46083 63.6065 7.88931L65.0135 9.31068ZM84.31 1.76C92.1828 1.76 98.5871 4.26251 103.607 9.23072L105.013 7.80927C99.5796 2.43081 92.6506 -0.240002 84.31 -0.240002V1.76ZM103.61 9.23428C108.68 14.2017 111.23 20.5488 111.23 28.36H113.23C113.23 20.0645 110.5 13.185 105.01 7.80571L103.61 9.23428ZM111.23 28.36C111.23 36.1712 108.68 42.5183 103.61 47.4857L105.01 48.9143C110.5 43.535 113.23 36.6555 113.23 28.36H111.23ZM103.607 47.4893C98.5871 52.4575 92.1828 54.96 84.31 54.96V56.96C92.6506 56.96 99.5796 54.2892 105.013 48.9107L103.607 47.4893ZM71.8079 41.5903C75.0023 45.127 79.2021 46.88 84.31 46.88V44.88C79.7113 44.88 76.071 43.3264 73.2921 40.2497L71.8079 41.5903ZM84.31 46.88C89.4179 46.88 93.6177 45.127 96.8121 41.5903L95.3279 40.2497C92.549 43.3264 88.9087 44.88 84.31 44.88V46.88ZM96.8121 41.5903C99.9876 38.0745 101.55 33.6379 101.55 28.36H99.55C99.55 33.2154 98.1257 37.1522 95.3279 40.2497L96.8121 41.5903ZM101.55 28.36C101.55 23.0821 99.9876 18.6455 96.8121 15.1297L95.3279 16.4703C98.1257 19.5678 99.55 23.5046 99.55 28.36H101.55ZM96.8121 15.1297C93.6177 11.593 89.4179 9.84 84.31 9.84V11.84C88.9087 11.84 92.549 13.3936 95.3279 16.4703L96.8121 15.1297ZM84.31 9.84C79.2021 9.84 75.0023 11.593 71.8079 15.1297L73.2921 16.4703C76.071 13.3936 79.7113 11.84 84.31 11.84V9.84ZM71.8019 15.1364C68.6827 18.6527 67.15 23.0869 67.15 28.36H69.15C69.15 23.4998 70.5507 19.5607 73.2981 16.4636L71.8019 15.1364ZM67.15 28.36C67.15 33.6331 68.6827 38.0673 71.8019 41.5836L73.2981 40.2564C70.5507 37.1593 69.15 33.2202 69.15 28.36H67.15ZM142.009 55V56H143.009V55H142.009ZM130.569 55H129.569V56H130.569V55ZM130.569 11.64H131.569V10.64H130.569V11.64ZM114.969 11.64H113.969V12.64H114.969V11.64ZM114.969 1.64V0.639996H113.969V1.64H114.969ZM157.529 1.64H158.529V0.639996H157.529V1.64ZM157.529 11.64V12.64H158.529V11.64H157.529ZM142.009 11.64V10.64H141.009V11.64H142.009ZM142.009 54H130.569V56H142.009V54ZM131.569 55V11.64H129.569V55H131.569ZM130.569 10.64H114.969V12.64H130.569V10.64ZM115.969 11.64V1.64H113.969V11.64H115.969ZM114.969 2.64H157.529V0.639996H114.969V2.64ZM156.529 1.64V11.64H158.529V1.64H156.529ZM157.529 10.64H142.009V12.64H157.529V10.64ZM141.009 11.64V55H143.009V11.64H141.009ZM238.16 55V56H238.915L239.122 55.274L238.16 55ZM226.08 55L225.111 55.2475L225.303 56H226.08V55ZM216.72 18.36L217.689 18.1125L215.751 18.1145L216.72 18.36ZM207.44 55V56H208.218L208.409 55.2455L207.44 55ZM195.36 55L194.399 55.2753L194.606 56H195.36V55ZM180.08 1.64V0.639996H178.753L179.119 1.91529L180.08 1.64ZM192.8 1.64L193.772 1.40411L193.586 0.639996H192.8V1.64ZM202.16 40.2L201.188 40.4359L203.127 40.4548L202.16 40.2ZM212.32 1.64V0.639996H211.549L211.353 1.38521L212.32 1.64ZM221.2 1.64L222.167 1.38708L221.972 0.639996H221.2V1.64ZM231.28 40.2L230.313 40.4529L232.252 40.434L231.28 40.2ZM240.56 1.64V0.639996H239.772L239.588 1.40601L240.56 1.64ZM253.36 1.64L254.322 1.91396L254.685 0.639996H253.36V1.64ZM238.16 54H226.08V56H238.16V54ZM227.049 54.7525L217.689 18.1125L215.751 18.6075L225.111 55.2475L227.049 54.7525ZM215.751 18.1145L206.471 54.7545L208.409 55.2455L217.689 18.6055L215.751 18.1145ZM207.44 54H195.36V56H207.44V54ZM196.321 54.7247L181.041 1.3647L179.119 1.91529L194.399 55.2753L196.321 54.7247ZM180.08 2.64H192.8V0.639996H180.08V2.64ZM191.828 1.87589L201.188 40.4359L203.132 39.9641L193.772 1.40411L191.828 1.87589ZM203.127 40.4548L213.287 1.89478L211.353 1.38521L201.193 39.9452L203.127 40.4548ZM212.32 2.64H221.2V0.639996H212.32V2.64ZM220.233 1.89291L230.313 40.4529L232.247 39.9471L222.167 1.38708L220.233 1.89291ZM232.252 40.434L241.532 1.87398L239.588 1.40601L230.308 39.966L232.252 40.434ZM240.56 2.64H253.36V0.639996H240.56V2.64ZM252.398 1.36604L237.198 54.726L239.122 55.274L254.322 1.91396L252.398 1.36604ZM304.962 55V56H306.419L305.895 54.6405L304.962 55ZM292.002 55L291.062 55.3411L291.301 56H292.002V55ZM288.722 45.96L289.662 45.6189L289.423 44.96H288.722V45.96ZM265.842 45.96V44.96H265.147L264.905 45.6116L265.842 45.96ZM262.482 55V56H263.177L263.419 55.3484L262.482 55ZM249.522 55L248.589 54.6392L248.063 56H249.522V55ZM270.162 1.64V0.639996H269.476L269.229 1.27924L270.162 1.64ZM284.402 1.64L285.335 1.28045L285.088 0.639996H284.402V1.64ZM285.602 35.96V36.96H287.028L286.542 35.6193L285.602 35.96ZM277.282 13L278.222 12.6593L277.282 10.0648L276.342 12.6593L277.282 13ZM268.962 35.96L268.022 35.6193L267.536 36.96H268.962V35.96ZM304.962 54H292.002V56H304.962V54ZM292.942 54.6589L289.662 45.6189L287.782 46.3011L291.062 55.3411L292.942 54.6589ZM288.722 44.96H265.842V46.96H288.722V44.96ZM264.905 45.6116L261.545 54.6516L263.419 55.3484L266.779 46.3084L264.905 45.6116ZM262.482 54H249.522V56H262.482V54ZM250.455 55.3608L271.095 2.00075L269.229 1.27924L248.589 54.6392L250.455 55.3608ZM270.162 2.64H284.402V0.639996H270.162V2.64ZM283.469 1.99954L304.029 55.3595L305.895 54.6405L285.335 1.28045L283.469 1.99954ZM286.542 35.6193L278.222 12.6593L276.342 13.3407L284.662 36.3007L286.542 35.6193ZM276.342 12.6593L268.022 35.6193L269.902 36.3007L278.222 13.3407L276.342 12.6593ZM268.962 36.96H285.602V34.96H268.962V36.96ZM353.089 55V56H354.841L353.95 54.4915L353.089 55ZM340.049 55L339.174 55.4838L339.46 56H340.049V55ZM329.569 36.04L330.445 35.5562L330.159 35.04H329.569V36.04ZM321.249 36.04V35.04H320.249V36.04H321.249ZM321.249 55V56H322.249V55H321.249ZM309.889 55H308.889V56H309.889V55ZM309.889 1.64V0.639996H308.889V1.64H309.889ZM347.889 6.43999L347.182 7.14713L347.188 7.15292L347.889 6.43999ZM349.329 29.48L348.565 28.8354L348.557 28.8443L349.329 29.48ZM341.089 34.68L340.866 33.7053L339.533 34.0112L340.228 35.1885L341.089 34.68ZM338.929 24.12L339.58 24.8793L339.588 24.8727L339.595 24.8659L338.929 24.12ZM338.929 13.64L338.263 14.3859L338.271 14.3927L338.279 14.3993L338.929 13.64ZM321.249 11.64V10.64H320.249V11.64H321.249ZM321.249 26.04H320.249V27.04H321.249V26.04ZM353.089 54H340.049V56H353.089V54ZM340.925 54.5162L330.445 35.5562L328.694 36.5238L339.174 55.4838L340.925 54.5162ZM329.569 35.04H321.249V37.04H329.569V35.04ZM320.249 36.04V55H322.249V36.04H320.249ZM321.249 54H309.889V56H321.249V54ZM310.889 55V1.64H308.889V55H310.889ZM309.889 2.64H334.849V0.639996H309.889V2.64ZM334.849 2.64C340.138 2.64 344.209 4.17347 347.182 7.1471L348.596 5.73289C345.17 2.30652 340.547 0.639996 334.849 0.639996V2.64ZM347.188 7.15292C350.228 10.1433 351.769 14.0089 351.769 18.84H353.769C353.769 13.5377 352.057 9.13668 348.591 5.72707L347.188 7.15292ZM351.769 18.84C351.769 23.0334 350.674 26.3344 348.565 28.8354L350.094 30.1246C352.572 27.1856 353.769 23.3932 353.769 18.84H351.769ZM348.557 28.8443C346.449 31.404 343.891 33.0109 340.866 33.7053L341.313 35.6547C344.794 34.8558 347.729 32.9959 350.101 30.1157L348.557 28.8443ZM340.228 35.1885L352.228 55.5085L353.95 54.4915L341.95 34.1715L340.228 35.1885ZM333.169 27.04C335.706 27.04 337.872 26.3434 339.58 24.8793L338.279 23.3607C337 24.4566 335.326 25.04 333.169 25.04V27.04ZM339.595 24.8659C341.322 23.3241 342.169 21.2821 342.169 18.84H340.169C340.169 20.7713 339.523 22.2492 338.263 23.3741L339.595 24.8659ZM342.169 18.84C342.169 16.3981 341.322 14.3734 339.58 12.8807L338.279 14.3993C339.524 15.4666 340.169 16.9086 340.169 18.84H342.169ZM339.595 12.8941C337.888 11.3695 335.717 10.64 333.169 10.64V12.64C335.315 12.64 336.984 13.2438 338.263 14.3859L339.595 12.8941ZM333.169 10.64H321.249V12.64H333.169V10.64ZM320.249 11.64V26.04H322.249V11.64H320.249ZM321.249 27.04H333.169V25.04H321.249V27.04Z" fill="#FCFFFF"/>
</svg>
