<svg width="28" height="28" viewBox="0 0 28 28" fill="none" xmlns="http://www.w3.org/2000/svg">
<path fill-rule="evenodd" clip-rule="evenodd" d="M8.55232 2.3338H19.4478C23.4157 2.3338 25.6557 4.5843 25.6673 8.55213V19.4488C25.6673 23.4155 23.4157 25.6671 19.4478 25.6671H8.55232C4.58448 25.6671 2.33398 23.4155 2.33398 19.4488V8.55213C2.33398 4.5843 4.58448 2.3338 8.55232 2.3338ZM14.0584 20.8371C14.5613 20.8371 14.9801 20.4638 15.0268 19.9621V8.07377C15.0734 7.71211 14.8996 7.34927 14.5846 7.15211C14.2568 6.95377 13.8601 6.95377 13.5463 7.15211C13.2301 7.34927 13.0563 7.71211 13.0901 8.07377V19.9621C13.1496 20.4638 13.5684 20.8371 14.0584 20.8371ZM19.4251 20.8371C19.9151 20.8371 20.3339 20.4638 20.3934 19.9621V16.1355C20.4272 15.761 20.2534 15.4121 19.9372 15.2138C19.6234 15.0155 19.2267 15.0155 18.9001 15.2138C18.5839 15.4121 18.4101 15.761 18.4567 16.1355V19.9621C18.5034 20.4638 18.9222 20.8371 19.4251 20.8371ZM9.59033 19.9622C9.54366 20.4638 9.12483 20.8372 8.622 20.8372C8.12033 20.8372 7.70033 20.4638 7.65483 19.9622V11.9005C7.61983 11.5377 7.79366 11.1772 8.10983 10.9788C8.42366 10.7805 8.8215 10.7805 9.1365 10.9788C9.45033 11.1772 9.6265 11.5377 9.59033 11.9005V19.9622Z" fill="url(#paint0_linear_120_3967)"/>
<defs>
<linearGradient id="paint0_linear_120_3967" x1="3.88571" y1="11.813" x2="22.7628" y2="13.3923" gradientUnits="userSpaceOnUse">
<stop stop-color="#68C9FF"/>
<stop offset="0.994746" stop-color="#D1B5FF"/>
</linearGradient>
</defs>
</svg>
