<svg width="12" height="13" viewBox="0 0 12 13" fill="none" xmlns="http://www.w3.org/2000/svg">
<path d="M1.0001 7.50006L8.5901 7.50006L5.2901 10.7901C5.1018 10.9784 4.99601 11.2338 4.99601 11.5001C4.99601 11.7664 5.1018 12.0218 5.2901 12.2101C5.47841 12.3984 5.7338 12.5041 6.0001 12.5041C6.26641 12.5041 6.5218 12.3984 6.7101 12.2101L11.7101 7.21006C11.8011 7.11495 11.8725 7.00281 11.9201 6.88006C12.0201 6.6366 12.0201 6.36352 11.9201 6.12006C11.8725 5.99731 11.8011 5.88516 11.7101 5.79006L6.7101 0.79006C6.61714 0.696332 6.50654 0.621935 6.38468 0.571167C6.26282 0.520398 6.13212 0.49426 6.0001 0.49426C5.86809 0.49426 5.73739 0.520398 5.61553 0.571166C5.49367 0.621935 5.38307 0.696331 5.2901 0.790059C5.19638 0.883023 5.12198 0.993622 5.07121 1.11548C5.02044 1.23734 4.99431 1.36805 4.99431 1.50006C4.99431 1.63207 5.02044 1.76278 5.07121 1.88464C5.12198 2.00649 5.19638 2.11709 5.2901 2.21006L8.5901 5.50006L1.0001 5.50006C0.734888 5.50006 0.480533 5.60541 0.292997 5.79295C0.105461 5.98049 0.000104499 6.23484 0.000104475 6.50006C0.000104452 6.76527 0.105461 7.01963 0.292997 7.20716C0.480533 7.3947 0.734888 7.50006 1.0001 7.50006Z" fill="url(#paint0_linear_55_1234)"/>
<defs>
<linearGradient id="paint0_linear_55_1234" x1="11.1974" y1="7.62513" x2="1.49307" y2="6.81423" gradientUnits="userSpaceOnUse">
<stop stop-color="#68C8FF"/>
<stop offset="0.994746" stop-color="#D1B5FF"/>
</linearGradient>
</defs>
</svg>
