<svg width="16" height="12" viewBox="0 0 16 12" fill="none" xmlns="http://www.w3.org/2000/svg">
<path d="M3.09069 11.7006C3.09069 11.8653 3.22267 12 3.39068 12H12.6123C12.7773 12 12.9123 11.8653 12.9123 11.7006V10.6049H3.09069V11.7006ZM15.3721 2.10323C15.2612 2.0284 15.1172 2.03434 15.0122 2.1152L11.0464 5.26241L8.26248 0.144839C8.16046 -0.049804 7.84249 -0.0467494 7.73749 0.144839L4.95361 5.26241L0.987791 2.1152C0.882793 2.03137 0.7388 2.0284 0.630806 2.10323C0.519815 2.17811 0.474806 2.31587 0.513822 2.44161L2.97764 10.006H13.0252L15.4861 2.44161C15.5251 2.31587 15.4802 2.17811 15.3721 2.10323Z" fill="url(#paint0_linear_44_790)"/>
<defs>
<linearGradient id="paint0_linear_44_790" x1="1.49754" y1="4.875" x2="13.5855" y2="6.13916" gradientUnits="userSpaceOnUse">
<stop stop-color="#68C9FF"/>
<stop offset="0.994746" stop-color="#D1B5FF"/>
</linearGradient>
</defs>
</svg>
