<svg width="20" height="20" viewBox="0 0 8 5" fill="none" xmlns="http://www.w3.org/2000/svg">
<path d="M4.00002 3.03251L1.34502 0.377511C1.2045 0.237823 1.01441 0.159417 0.816272 0.159417C0.618133 0.159417 0.428044 0.237823 0.287522 0.377511C0.217226 0.447234 0.16143 0.530184 0.123354 0.621579C0.0852772 0.712973 0.0656737 0.811003 0.0656737 0.910012C0.0656737 1.00902 0.0852772 1.10705 0.123354 1.19844C0.16143 1.28984 0.217226 1.37279 0.287522 1.44251L3.46752 4.62251C3.53724 4.69281 3.6202 4.7486 3.71159 4.78668C3.80298 4.82476 3.90101 4.84436 4.00002 4.84436C4.09903 4.84436 4.19706 4.82476 4.28846 4.78668C4.37985 4.7486 4.4628 4.69281 4.53252 4.62251L7.75002 1.44251C7.81953 1.37243 7.87453 1.28932 7.91185 1.19794C7.94917 1.10656 7.96809 1.00872 7.96752 0.910011C7.96809 0.811306 7.94917 0.71346 7.91185 0.622081C7.87453 0.530703 7.81953 0.447591 7.75002 0.377511C7.6095 0.237823 7.41941 0.159417 7.22127 0.159417C7.02313 0.159417 6.83304 0.237823 6.69252 0.377511L4.00002 3.03251Z" fill="#C8D2DC"/>
</svg>
